<svg xmlns="http://www.w3.org/2000/svg" width="1500" height="900" viewBox="0 0 1500 900">
  <defs><marker id="arrow" markerWidth="10" markerHeight="10" refX="9" refY="3" orient="auto" markerUnits="strokeWidth"><path d="M0,0 L0,6 L9,3 z" fill="#333"/></marker><style>text{font-family:Arial,sans-serif}.title{font-size:24px;font-weight:700;fill:#222}.boundary{fill:#f5f7fa;stroke:#444;stroke-width:2}.box{rx:8;ry:8;stroke-width:2}.client{fill:#438dd5;stroke:#2d6ca2}.component{fill:#85bbf0;stroke:#2d6ca2}.data{fill:#f5a623;stroke:#b96e00}.external{fill:#666;stroke:#444}.label{font-size:14px;font-weight:700;fill:#fff}.tag{font-size:11px;fill:#fff}.black{fill:#111}.edge{stroke:#333;stroke-width:2;fill:none;marker-end:url(#arrow)}.edgeText{font-size:12px;fill:#222}</style></defs>
  <text x="750" y="52" text-anchor="middle" class="title">C4 Level 3 - Backend REST API Component Diagram</text>
  <rect x="55" y="190" width="240" height="90" class="box client"/><text x="175" y="224" text-anchor="middle" class="label">Frontend Apps</text><text x="175" y="249" text-anchor="middle" class="tag">[Portals and mobile app]</text>
  <rect x="370" y="105" width="730" height="710" class="boundary"/><text x="735" y="132" text-anchor="middle" style="font-size:16px;font-weight:700;fill:#333">Backend REST API [Container]</text>
  <rect x="420" y="175" width="220" height="90" class="box component"/><text x="530" y="207" text-anchor="middle" class="label">API Controllers</text><text x="530" y="232" text-anchor="middle" class="tag">REST endpoints</text>
  <rect x="735" y="175" width="220" height="90" class="box component"/><text x="845" y="207" text-anchor="middle" class="label">Auth Component</text><text x="845" y="232" text-anchor="middle" class="tag">JWT validation</text>
  <rect x="420" y="330" width="220" height="90" class="box component"/><text x="530" y="362" text-anchor="middle" class="label">Vehicle Registration</text><text x="530" y="387" text-anchor="middle" class="tag">Validate and generate QR</text>
  <rect x="735" y="330" width="220" height="90" class="box component"/><text x="845" y="362" text-anchor="middle" class="label">Station Registration</text><text x="845" y="387" text-anchor="middle" class="tag">Fuel station onboarding</text>
  <rect x="420" y="485" width="220" height="90" class="box component"/><text x="530" y="517" text-anchor="middle" class="label">Quota Management</text><text x="530" y="542" text-anchor="middle" class="tag">Balances and limits</text>
  <rect x="735" y="485" width="220" height="90" class="box component"/><text x="845" y="517" text-anchor="middle" class="label">Fuel Transactions</text><text x="845" y="542" text-anchor="middle" class="tag">Pumped litre records</text>
  <rect x="420" y="640" width="220" height="90" class="box component"/><text x="530" y="672" text-anchor="middle" class="label">Admin Operations</text><text x="530" y="697" text-anchor="middle" class="tag">Monitoring and approvals</text>
  <rect x="735" y="640" width="220" height="90" class="box component"/><text x="845" y="672" text-anchor="middle" class="label">SMS Adapter</text><text x="845" y="697" text-anchor="middle" class="tag">SRI-SMS integration</text>
  <rect x="1190" y="250" width="220" height="90" class="box data"/><text x="1300" y="284" text-anchor="middle" class="label black">System Database</text><text x="1300" y="309" text-anchor="middle" class="tag black">[PostgreSQL]</text>
  <rect x="1190" y="440" width="220" height="90" class="box external"/><text x="1300" y="474" text-anchor="middle" class="label">Motor Traffic DB</text><text x="1300" y="499" text-anchor="middle" class="tag">[External System]</text>
  <rect x="1190" y="630" width="220" height="90" class="box external"/><text x="1300" y="664" text-anchor="middle" class="label">SRI-SMS</text><text x="1300" y="689" text-anchor="middle" class="tag">[External System]</text>
  <path d="M295 235 H420" class="edge"/><path d="M640 220 H735" class="edge"/><path d="M530 265 V330" class="edge"/><path d="M640 375 H735" class="edge"/><path d="M530 420 V485" class="edge"/><path d="M845 420 V485" class="edge"/><path d="M845 575 V640" class="edge"/><path d="M530 575 V640" class="edge"/>
  <path d="M955 375 H1120 V295 H1190" class="edge"/><text x="1030" y="283" class="edgeText">Persists data</text>
  <path d="M640 375 H1120 V485 H1190" class="edge"/><text x="1010" y="473" class="edgeText">Vehicle lookup</text>
  <path d="M955 685 H1190" class="edge"/><text x="1010" y="673" class="edgeText">Send SMS</text>
</svg>
